<?xml version="1.0" standalone="no"?>
<!DOCTYPE svg PUBLIC "-//W3C//DTD SVG 20010904//EN"
 "http://www.w3.org/TR/2001/REC-SVG-20010904/DTD/svg10.dtd">
<svg version="1.0" xmlns="http://www.w3.org/2000/svg"
 width="512.000000pt" height="512.000000pt" viewBox="0 0 512.000000 512.000000"
 preserveAspectRatio="xMidYMid meet">

<g transform="translate(0.000000,512.000000) scale(0.100000,-0.100000)"
fill="#000000" stroke="none">
<path d="M2092 4943 c-75 -36 -112 -134 -78 -204 9 -19 70 -88 136 -154 l119
-119 -102 -23 c-293 -66 -582 -205 -811 -392 -455 -369 -716 -921 -716 -1512
0 -89 4 -117 20 -148 26 -52 78 -83 138 -84 57 -1 99 21 132 70 22 32 24 49
31 206 5 99 17 217 28 277 96 495 417 917 866 1139 103 51 292 121 326 121 6
0 -32 -45 -85 -101 -102 -107 -124 -149 -112 -211 15 -82 120 -149 198 -127
43 11 542 508 575 571 27 51 28 92 5 135 -34 65 -487 533 -538 558 -41 19 -90
19 -132 -2z"/>
<path d="M3288 4274 c-42 -22 -81 -107 -75 -161 6 -56 29 -80 137 -145 130
-78 225 -153 335 -263 351 -353 527 -862 460 -1331 -16 -114 -54 -274 -64
-274 -4 0 -22 53 -40 117 -37 132 -49 154 -98 184 -27 17 -45 20 -89 17 -68
-6 -101 -29 -133 -92 l-24 -47 93 -347 c51 -191 101 -363 111 -383 26 -51 72
-87 122 -94 66 -10 749 174 789 212 96 92 26 273 -105 273 -21 0 -110 -18
-199 -40 -88 -23 -162 -40 -163 -38 -2 2 14 53 35 114 161 468 126 972 -99
1429 -163 329 -384 578 -691 777 -166 108 -235 129 -302 92z"/>
<path d="M2717 2796 c-46 -17 -64 -32 -83 -67 -36 -70 -2 -138 92 -184 34 -16
69 -36 78 -44 23 -19 20 -58 -5 -72 -32 -17 -115 -6 -150 20 l-29 22 0 -50 c0
-59 10 -67 93 -77 75 -9 147 10 183 47 25 26 29 38 29 84 0 67 -21 91 -122
144 -52 28 -69 42 -71 60 -7 48 69 67 143 37 l35 -15 0 44 c0 24 -5 47 -11 51
-23 14 -144 14 -182 0z"/>
<path d="M1686 2792 c-8 -14 -156 -424 -156 -434 0 -5 23 -8 52 -6 l52 3 15
48 15 47 81 0 81 0 13 -50 13 -50 54 0 c30 0 54 3 54 8 0 4 -35 105 -77 225
l-77 217 -57 0 c-32 0 -60 -4 -63 -8z m62 -260 c-28 -2 -52 -1 -55 2 -3 2 8
43 23 90 l28 86 27 -88 27 -87 -50 -3z"/>
<path d="M1960 2794 c0 -4 25 -105 57 -225 l56 -219 58 0 58 0 12 43 c6 23 24
90 40 150 16 59 29 115 29 125 1 9 20 -57 43 -148 l43 -165 57 -3 c54 -3 57
-2 63 25 4 15 30 116 59 223 l51 195 -44 3 c-25 2 -48 0 -52 -5 -5 -4 -22 -77
-39 -162 -17 -85 -32 -156 -34 -157 -2 -2 -21 71 -42 162 l-39 165 -55 -3 -55
-3 -41 -150 c-23 -82 -43 -156 -46 -163 -2 -8 -20 61 -39 152 l-34 166 -53 0
c-29 0 -53 -3 -53 -6z"/>
<path d="M3000 2575 l0 -225 45 0 45 0 0 178 0 177 51 -145 c28 -80 56 -160
62 -177 9 -30 14 -33 52 -33 l42 0 61 178 61 177 0 -177 1 -178 50 0 50 0 0
225 0 225 -74 0 c-61 0 -75 -3 -81 -17 -4 -10 -29 -83 -56 -163 -27 -80 -49
-143 -49 -140 0 3 -24 75 -53 160 l-54 155 -76 3 -77 3 0 -226z"/>
<path d="M913 1871 c-23 -11 -49 -31 -58 -45 -9 -14 -59 -184 -111 -378 -77
-286 -94 -361 -89 -395 15 -105 132 -164 232 -117 59 29 78 66 123 244 23 91
43 167 46 169 2 2 43 -38 91 -89 171 -182 355 -317 578 -425 535 -259 1134
-259 1674 0 228 110 271 148 271 238 0 91 -55 158 -142 172 -34 6 -56 -2 -200
-74 -280 -139 -486 -191 -756 -191 -333 0 -623 89 -902 275 -104 69 -278 217
-262 223 6 2 57 -11 115 -27 58 -17 122 -31 143 -31 71 0 134 58 149 137 8 46
-28 120 -73 150 -35 23 -239 75 -462 118 -74 14 -164 34 -198 45 -79 25 -115
25 -169 1z"/>
</g>
</svg>
